<svg id="svg" fill="#A18A68" stroke="#A18A68" width="200" height="200" version="1.1" viewBox="144 144 512 512" xmlns="http://www.w3.org/2000/svg">
    <g id="IconSvg_bgCarrier" stroke-width="0"></g>
    <g id="IconSvg_tracerCarrier" stroke-linecap="round" stroke-linejoin="round" stroke="#CCCCCC" stroke-width="0">
      <defs xmlns="http://www.w3.org/2000/svg">
  <clipPath id="a">
   <path d="m148.09 148.09h503.81v503.81h-503.81z"></path>
  </clipPath>
 </defs>
<g xmlns="http://www.w3.org/2000/svg" clip-path="url(#a)">
  <path d="m400 651.9c-138.89 0-251.91-113.01-251.91-251.91 0-138.89 113.01-251.91 251.91-251.91s251.91 113.01 251.91 251.91c-0.003906 138.89-113.02 251.91-251.91 251.91zm0-474.18c-122.59 0-222.28 99.691-222.28 222.28 0 122.58 99.691 222.27 222.27 222.27 122.58 0 222.27-99.691 222.27-222.27 0.003907-122.59-99.688-222.28-222.27-222.28z"></path>
 </g>
<path xmlns="http://www.w3.org/2000/svg" d="m396.38 504.82c-4.9453 7.1172-14.801 8.8789-21.914 3.9375-7.1172-4.9453-8.8789-14.801-3.9375-21.914l133.29-191.67c4.9453-7.1484 14.801-8.8789 21.914-3.9375 7.1172 4.9453 8.8789 14.801 3.9375 21.914z"></path>
<path xmlns="http://www.w3.org/2000/svg" d="m391.72 483.32c6.8945 5.2891 8.2188 15.145 2.8984 22.074-5.2891 6.8945-15.176 8.2188-22.074 2.8984l-98.875-75.859c-6.8945-5.2891-8.2188-15.145-2.8984-22.07 5.2891-6.8945 15.176-8.1875 22.074-2.8984z"></path>

      </g>
     <g id="IconSvg_iconCarrier">
      <defs xmlns="http://www.w3.org/2000/svg">
  <clipPath id="a">
   <path d="m148.09 148.09h503.81v503.81h-503.81z"></path>
  </clipPath>
 </defs>
<g xmlns="http://www.w3.org/2000/svg" clip-path="url(#a)">
  <path d="m400 651.9c-138.89 0-251.91-113.01-251.91-251.91 0-138.89 113.01-251.91 251.91-251.91s251.91 113.01 251.91 251.91c-0.003906 138.89-113.02 251.91-251.91 251.91zm0-474.18c-122.59 0-222.28 99.691-222.28 222.28 0 122.58 99.691 222.27 222.27 222.27 122.58 0 222.27-99.691 222.27-222.27 0.003907-122.59-99.688-222.28-222.27-222.28z"></path>
 </g>
<path xmlns="http://www.w3.org/2000/svg" d="m396.38 504.82c-4.9453 7.1172-14.801 8.8789-21.914 3.9375-7.1172-4.9453-8.8789-14.801-3.9375-21.914l133.29-191.67c4.9453-7.1484 14.801-8.8789 21.914-3.9375 7.1172 4.9453 8.8789 14.801 3.9375 21.914z"></path>
<path xmlns="http://www.w3.org/2000/svg" d="m391.72 483.32c6.8945 5.2891 8.2188 15.145 2.8984 22.074-5.2891 6.8945-15.176 8.2188-22.074 2.8984l-98.875-75.859c-6.8945-5.2891-8.2188-15.145-2.8984-22.07 5.2891-6.8945 15.176-8.1875 22.074-2.8984z"></path>

      </g>
      </svg>