<svg id="svg" fill="#A18A68" stroke="#A18A68" width="200" height="200" version="1.1" viewBox="144 144 512 512" xmlns="http://www.w3.org/2000/svg">
    <g id="IconSvg_bgCarrier" stroke-width="0"></g>
    <g id="IconSvg_tracerCarrier" stroke-linecap="round" stroke-linejoin="round" stroke="#CCCCCC" stroke-width="0">
      <path xmlns="http://www.w3.org/2000/svg" d="m400 173.29c-125 0-226.71 101.72-226.71 226.71s101.72 226.71 226.71 226.71 226.71-101.72 226.71-226.71c-0.003906-125-101.72-226.71-226.71-226.71zm0 433.27c-113.91 0-206.56-92.648-206.56-206.56 0-113.91 92.648-206.56 206.56-206.56 113.91 0 206.56 92.652 206.56 206.56-0.003906 113.91-92.652 206.56-206.56 206.56zm87.711-280.07-73.453 73.508 73.504 73.504c3.9297 3.9297 3.9297 10.328 0 14.258-2.0156 1.9141-4.5859 2.9219-7.1523 2.9219-2.5703 0-5.1406-1.0078-7.1055-2.9727l-73.504-73.453-73.508 73.453c-1.9648 1.9648-4.5352 2.9727-7.1016 2.9727-2.5703 0-5.1406-1.0078-7.1055-2.9727-3.9297-3.9297-3.9297-10.328 0-14.258l73.457-73.453-73.457-73.508c-3.9297-3.9297-3.9297-10.328 0-14.258 3.9297-3.9297 10.328-3.9297 14.258 0l73.457 73.508 73.504-73.504c3.9297-3.9297 10.328-3.9297 14.258 0 3.9297 3.9766 3.9297 10.324-0.050781 14.254z"></path>

      </g>
     <g id="IconSvg_iconCarrier">
      <path xmlns="http://www.w3.org/2000/svg" d="m400 173.29c-125 0-226.71 101.72-226.71 226.71s101.72 226.71 226.71 226.71 226.71-101.72 226.71-226.71c-0.003906-125-101.72-226.71-226.71-226.71zm0 433.27c-113.91 0-206.56-92.648-206.56-206.56 0-113.91 92.648-206.56 206.56-206.56 113.91 0 206.56 92.652 206.56 206.56-0.003906 113.91-92.652 206.56-206.56 206.56zm87.711-280.07-73.453 73.508 73.504 73.504c3.9297 3.9297 3.9297 10.328 0 14.258-2.0156 1.9141-4.5859 2.9219-7.1523 2.9219-2.5703 0-5.1406-1.0078-7.1055-2.9727l-73.504-73.453-73.508 73.453c-1.9648 1.9648-4.5352 2.9727-7.1016 2.9727-2.5703 0-5.1406-1.0078-7.1055-2.9727-3.9297-3.9297-3.9297-10.328 0-14.258l73.457-73.453-73.457-73.508c-3.9297-3.9297-3.9297-10.328 0-14.258 3.9297-3.9297 10.328-3.9297 14.258 0l73.457 73.508 73.504-73.504c3.9297-3.9297 10.328-3.9297 14.258 0 3.9297 3.9766 3.9297 10.324-0.050781 14.254z"></path>

      </g>
      </svg>