<svg 
  width="20" 
  height="18" 
  viewBox="0 0 20 18" 
  fill="none" 
  xmlns="http://www.w3.org/2000/svg"> 

  <path 
    fill-rule="evenodd" 
    clip-rule="evenodd" 
    d="M9.56899 2.01405C10.6777 0.77861 12.231 0.0520888 13.875 0C16.7817 0 19.138 2.39588 19.138 5.35135C19.138 8.85038 15.3125 12.6852 13.0182 14.9851C12.8117 15.1921 12.6175 15.3868 12.4397 15.5676L10.258 17.7859C10.1235 17.9228 9.94108 17.9998 9.7508 18H9.38718C9.19691 17.9998 9.01449 17.9228 8.88003 17.7859L6.6983 15.5676C6.52047 15.3868 6.32627 15.1921 6.11977 14.9851C3.82547 12.6852 0 8.85038 0 5.35135C0 2.39588 2.35634 0 5.26304 0C6.90704 0.0520888 8.46034 0.77861 9.56899 2.01405Z" 
    fill="#A18A68"
  />
</svg>