<svg
  xmlns="http://www.w3.org/2000/svg"
  viewBox="0 0 24 24"
  width="24"
  height="24"
  fill="currentColor"
>
  <!-- ЗАЛИВКА -->
  <path
    d="M9.56899 2.01405C10.6777 0.77861 12.231 0.0520888 13.875 0C16.7817 0 19.138 2.39588 19.138 5.35135C19.138 8.85038 15.3125 12.6852 13.0182 14.9851C12.8117 15.1921 12.6175 15.3868 12.4397 15.5676L10.258 17.7859C10.1235 17.9228 9.94108 17.9998 9.7508 18H9.38718C9.19691 17.9998 9.01449 17.9228 8.88003 17.7859L6.6983 15.5676C6.52047 15.3868 6.32632 15.1921 6.11976 14.9851C3.82545 12.6852 0 8.85038 0 5.35135C0 2.39588 2.3563 0 5.26295 0C6.90699 0.0520888 8.4603 0.77861 9.56899 2.01405Z"
    fill="currentColor"
  />

  <!-- КОНТУР -->
  <path
    d="M9.56899 2.01405C10.6777 0.77861 12.231 0.0520888 13.875 0C16.7817 0 19.138 2.39588 19.138 5.35135C19.138 8.85038 15.3125 12.6852 13.0182 14.9851C12.8117 15.1921 12.6175 15.3868 12.4397 15.5676L10.258 17.7859C10.1235 17.9228 9.94108 17.9998 9.7508 18H9.38718C9.19691 17.9998 9.01449 17.9228 8.88003 17.7859L6.6983 15.5676C6.52047 15.3868 6.32632 15.1921 6.11976 14.9851C3.82545 12.6852 0 8.85038 0 5.35135C0 2.39588 2.3563 0 5.26295 0C6.90699 0.0520888 8.4603 0.77861 9.56899 2.01405Z"
    fill="none"
    stroke="#A18A68"
    stroke-width="1"
  />
</svg>
