<svg id="svg" fill="#000000" stroke="#000000" width="200px" height="200px" version="1.1" viewBox="144 144 512 512" xmlns="http://www.w3.org/2000/svg">
    <g id="IconSvg_bgCarrier" stroke-width="0"></g>
    <g id="IconSvg_tracerCarrier" stroke-linecap="round" stroke-linejoin="round" stroke="#CCCCCC"></g>
     <g id="IconSvg_iconCarrier">
      <g xmlns="http://www.w3.org/2000/svg" fill-rule="evenodd">
  <path d="m250.86 613.93c8.8633 0 17.363-3.5195 23.629-9.7891 6.2656-6.2656 9.7852-14.766 9.7852-23.625v-361.66c0-11.988 4.7656-23.488 13.242-31.965 8.4766-8.4766 19.977-13.242 31.965-13.242h235.31c11.988 0 23.488 4.7617 31.965 13.242 8.4766 8.4766 13.242 19.977 13.242 31.965v361.66c0 11.988-4.7656 23.488-13.242 31.965-8.4766 8.4766-19.977 13.242-31.965 13.242h-313.93c-3.2578 0-5.8984-2.6406-5.8984-5.8984 0-3.2578 2.6406-5.8984 5.8984-5.8984zm30.449 0c0.51562-0.46875 1.0234-0.94922 1.5195-1.4492 8.4766-8.4766 13.242-19.977 13.242-31.965v-361.66c0-8.8633 3.5195-17.363 9.7891-23.629 6.2656-6.2656 14.766-9.7852 23.629-9.7852h235.31c8.8633 0 17.363 3.5195 23.629 9.7852 6.2656 6.2656 9.7891 14.766 9.7891 23.629v361.66c0 8.8594-3.5195 17.359-9.7891 23.625-6.2656 6.2656-14.766 9.7891-23.629 9.7891z"></path>
  <path d="m256.68 625.72h-0.11328-21.992c-11.988 0-23.488-4.7617-31.965-13.242-8.4766-8.4766-13.242-19.977-13.242-31.965v-220.14c0-16.281 13.199-29.484 29.484-29.484h70.758c3.2578 0 5.8984 2.6406 5.8984 5.8984v250.3c0 0.33203-0.027344 0.66016-0.082031 0.98438-1.5586 9.1875-5.9297 17.734-12.605 24.41-1.1211 1.1211-2.293 2.1758-3.5156 3.1641 5.3633 1.1172 7.7344 2.6484 7.3906 4.1797 0.66016 2.9453-8.6914 5.8867-30.012 5.8984zm-5.8281-11.793h-16.277c-8.8594 0-17.359-3.5195-23.625-9.7891-6.2656-6.2656-9.7891-14.766-9.7891-23.625v-220.14c0-9.7695 7.918-17.691 17.691-17.691h64.863v243.89c-1.2227 6.6172-4.4141 12.754-9.2344 17.574-6.2656 6.2656-14.766 9.7891-23.629 9.7891z"></path>
  <path d="m284.27 282.3c0 3.2578 2.6406 5.8984 5.8984 5.8984h313.94c3.2578 0 5.8984-2.6406 5.8984-5.8984v-63.445c0-11.988-4.7656-23.488-13.242-31.965-8.4766-8.4766-19.977-13.242-31.965-13.242h-235.31c-11.988 0-23.488 4.7617-31.965 13.242-8.4766 8.4766-13.242 19.977-13.242 31.965v63.445zm11.793-5.8984v-57.547c0-8.8633 3.5195-17.363 9.7891-23.629 6.2656-6.2656 14.766-9.7852 23.629-9.7852h235.31c8.8633 0 17.363 3.5195 23.629 9.7852s9.7891 14.766 9.7891 23.629v57.547z"></path>
  <path d="m543.45 220.35c0-5.7344-2.2773-11.234-6.332-15.289-4.0547-4.0547-9.5547-6.332-15.289-6.332h-149.38c-5.7344 0-11.234 2.2773-15.289 6.332-4.0547 4.0547-6.332 9.5547-6.332 15.289v21.145c0 5.7344 2.2812 11.234 6.332 15.289 4.0547 4.0547 9.5547 6.332 15.289 6.332h149.38c5.7344 0 11.234-2.2773 15.289-6.332 4.0547-4.0547 6.332-9.5547 6.332-15.289zm-11.793 0v21.145c0 2.6055-1.0352 5.1055-2.8789 6.9492-1.8398 1.8398-4.3438 2.8789-6.9492 2.8789h-149.38c-2.6094 0-5.1055-1.0352-6.9492-2.8789s-2.8789-4.3438-2.8789-6.9492v-21.145c0-2.6055 1.0352-5.1055 2.8789-6.9492s4.3438-2.8789 6.9492-2.8789h149.38c2.6094 0 5.1094 1.0352 6.9492 2.8789 1.8438 1.8398 2.8789 4.3438 2.8789 6.9492z"></path>
  <path d="m430.33 344.91c0-5.7344-2.2812-11.234-6.332-15.289-4.0547-4.0547-9.5547-6.332-15.289-6.332h-69.684c-5.7344 0-11.234 2.2812-15.289 6.332-4.0547 4.0547-6.332 9.5547-6.332 15.289v60.758c0 5.7344 2.2773 11.234 6.332 15.289 4.0547 4.0547 9.5547 6.332 15.289 6.332h69.684c5.7344 0 11.234-2.2812 15.289-6.332 4.0547-4.0547 6.332-9.5547 6.332-15.289zm-11.793 0v60.758c0 2.6094-1.0352 5.1055-2.8789 6.9492s-4.3438 2.8789-6.9492 2.8789h-69.684c-2.6055 0-5.1055-1.0352-6.9492-2.8789s-2.8789-4.3438-2.8789-6.9492v-60.758c0-2.6094 1.0352-5.1055 2.8789-6.9492 1.8398-1.8438 4.3438-2.8789 6.9492-2.8789h69.684c2.6094 0 5.1055 1.0352 6.9492 2.8789s2.8789 4.3438 2.8789 6.9492z"></path>
  <path d="m459.29 335.08h56.641c3.2539 0 5.8984-2.6406 5.8984-5.8984 0-3.2539-2.6406-5.8984-5.8984-5.8984h-56.641c-3.2539 0-5.8984 2.6445-5.8984 5.8984 0 3.2539 2.6406 5.8984 5.8984 5.8984z"></path>
  <path d="m459.29 366.61h111.68c3.2539 0 5.8984-2.6406 5.8984-5.8984 0-3.2539-2.6406-5.8984-5.8984-5.8984h-111.68c-3.2539 0-5.8984 2.6445-5.8984 5.8984s2.6406 5.8984 5.8984 5.8984z"></path>
  <path d="m459.29 396.95h111.68c3.2539 0 5.8984-2.6406 5.8984-5.8984 0-3.2539-2.6406-5.8984-5.8984-5.8984h-111.68c-3.2539 0-5.8984 2.6445-5.8984 5.8984 0 3.2539 2.6406 5.8984 5.8984 5.8984z"></path>
  <path d="m459.29 427.29h111.68c3.2539 0 5.8984-2.6445 5.8984-5.8984s-2.6406-5.8984-5.8984-5.8984h-111.68c-3.2539 0-5.8984 2.6406-5.8984 5.8984 0 3.2539 2.6406 5.8984 5.8984 5.8984z"></path>
  <path d="m399.89 481.54h93.793c3.2539 0 5.8984-2.6406 5.8984-5.8984 0-3.2539-2.6406-5.8984-5.8984-5.8984h-93.793c-3.2539 0-5.8984 2.6406-5.8984 5.8984 0 3.2539 2.6406 5.8984 5.8984 5.8984z"></path>
  <path d="m399.89 513.07h93.793c3.2539 0 5.8984-2.6406 5.8984-5.8984 0-3.2539-2.6406-5.8984-5.8984-5.8984h-93.793c-3.2539 0-5.8984 2.6406-5.8984 5.8984 0 3.2539 2.6406 5.8984 5.8984 5.8984z"></path>
  <path d="m399.89 543.41h93.793c3.2539 0 5.8984-2.6406 5.8984-5.8984 0-3.2539-2.6406-5.8984-5.8984-5.8984h-93.793c-3.2539 0-5.8984 2.6406-5.8984 5.8984 0 3.2539 2.6406 5.8984 5.8984 5.8984z"></path>
  <path d="m399.89 573.75h93.793c3.2539 0 5.8984-2.6406 5.8984-5.8984 0-3.2539-2.6406-5.8984-5.8984-5.8984h-93.793c-3.2539 0-5.8984 2.6445-5.8984 5.8984s2.6406 5.8984 5.8984 5.8984z"></path>
  <path d="m374.05 487.44c0-4.6914-1.8633-9.1914-5.1797-12.508-3.3164-3.3164-7.8164-5.1797-12.508-5.1797h-21.621c-4.6914 0-9.1914 1.8633-12.508 5.1797-3.3164 3.3164-5.1797 7.8164-5.1797 12.508v68.621c0 4.6914 1.8633 9.1914 5.1797 12.512 3.3164 3.3164 7.8164 5.1797 12.508 5.1797h21.621c4.6914 0 9.1914-1.8633 12.508-5.1797 3.3203-3.3203 5.1797-7.8164 5.1797-12.512zm-11.793 0v68.621c0 1.5625-0.62109 3.0625-1.7266 4.1719-1.1055 1.1055-2.6055 1.7266-4.1719 1.7266h-21.621c-1.5625 0-3.0625-0.62109-4.1719-1.7266-1.1055-1.1055-1.7266-2.6055-1.7266-4.1719v-68.621c0-1.5625 0.62109-3.0625 1.7266-4.1719 1.1055-1.1055 2.6055-1.7266 4.1719-1.7266h21.621c1.5625 0 3.0625 0.62109 4.1719 1.7266 1.1055 1.1055 1.7266 2.6055 1.7266 4.1719z"></path>
  <path d="m577.21 487.44c0-4.6914-1.8633-9.1914-5.1797-12.508-3.3164-3.3164-7.8164-5.1797-12.508-5.1797h-21.621c-4.6914 0-9.1914 1.8633-12.508 5.1797-3.3164 3.3164-5.1797 7.8164-5.1797 12.508v68.621c0 4.6914 1.8633 9.1914 5.1797 12.512 3.3164 3.3164 7.8164 5.1797 12.508 5.1797h21.621c4.6914 0 9.1914-1.8633 12.508-5.1797 3.3164-3.3203 5.1797-7.8164 5.1797-12.512v-68.621zm-11.793 0v68.621c0 1.5625-0.62109 3.0625-1.7266 4.1719-1.1055 1.1055-2.6055 1.7266-4.1719 1.7266h-21.621c-1.5625 0-3.0625-0.62109-4.1719-1.7266-1.1055-1.1055-1.7266-2.6055-1.7266-4.1719v-68.621c0-1.5625 0.62109-3.0625 1.7266-4.1719 1.1055-1.1055 2.6055-1.7266 4.1719-1.7266h21.621c1.5625 0 3.0625 0.62109 4.1719 1.7266 1.1055 1.1055 1.7266 2.6055 1.7266 4.1719z"></path>
 </g>

      </g>
      </svg>